<?xml version="1.0" encoding="utf-8" standalone="no"?>
<!DOCTYPE svg PUBLIC "-//W3C//DTD SVG 1.1//EN"
  "http://www.w3.org/Graphics/SVG/1.1/DTD/svg11.dtd">
<svg xmlns:xlink="http://www.w3.org/1999/xlink" width="864pt" height="360pt" viewBox="0 0 864 360" xmlns="http://www.w3.org/2000/svg" version="1.1">
 <metadata>
  <rdf:RDF xmlns:dc="http://purl.org/dc/elements/1.1/" xmlns:cc="http://creativecommons.org/ns#" xmlns:rdf="http://www.w3.org/1999/02/22-rdf-syntax-ns#">
   <cc:Work>
    <dc:type rdf:resource="http://purl.org/dc/dcmitype/StillImage"/>
    <dc:date>2026-10-02T10:54:03.298163</dc:date>
    <dc:format>image/svg+xml</dc:format>
    <dc:creator>
     <cc:Agent>
      <dc:title>Matplotlib v3.11.2, https://matplotlib.org/</dc:title>
     </cc:Agent>
    </dc:creator>
   </cc:Work>
  </rdf:RDF>
 </metadata>
 <defs>
  <style type="text/css">*{stroke-linejoin: round; stroke-linecap: butt}</style>
 </defs>
 <g id="figure_1">
  <g id="patch_1">
   <path d="M 0 360 
L 864 360 
L 864 0 
L 0 0 
z
" style="fill: #ffffff"/>
  </g>
  <g id="axes_1">
   <g id="line2d_1">
    <path d="M 138.758101 173.917432 
L 685.711782 173.917432 
" clip-path="url(#p42921c35bf)" style="fill: none; stroke: #000000; stroke-width: 0.8; stroke-linecap: square"/>
   </g>
   <g id="line2d_2">
    <path d="M 138.758101 177.134807 
L 164.497098 177.134807 
" clip-path="url(#p42921c35bf)" style="fill: none; stroke: #000000; stroke-width: 0.8; stroke-linecap: square"/>
   </g>
   <g id="line2d_3">
    <path d="M 138.758101 180.352181 
L 273.887834 177.134807 
" clip-path="url(#p42921c35bf)" style="fill: none; stroke: #000000; stroke-width: 0.8; stroke-linecap: square"/>
   </g>
   <g id="line2d_4">
    <path d="M 138.758101 183.569556 
L 164.497098 183.569556 
" clip-path="url(#p42921c35bf)" style="fill: none; stroke: #000000; stroke-width: 0.8; stroke-linecap: square"/>
   </g>
   <g id="line2d_5">
    <path d="M 138.758101 186.786931 
L 164.497098 186.786931 
" clip-path="url(#p42921c35bf)" style="fill: none; stroke: #000000; stroke-width: 0.8; stroke-linecap: square"/>
   </g>
   <g id="line2d_6">
    <path d="M 138.758101 190.004305 
L 746.841899 190.004305 
" clip-path="url(#p42921c35bf)" style="fill: none; stroke: #0099ff; stroke-width: 0.8; stroke-linecap: square"/>
   </g>
   <g id="line2d_7">
    <path d="M 164.497098 177.134807 
L 746.841899 186.786931 
" clip-path="url(#p42921c35bf)" style="fill: none; stroke: #0099ff; stroke-width: 0.8; stroke-linecap: square"/>
   </g>
   <g id="line2d_8">
    <path d="M 164.497098 183.569556 
L 746.841899 180.352181 
" clip-path="url(#p42921c35bf)" style="fill: none; stroke: #0099ff; stroke-width: 0.8; stroke-linecap: square"/>
   </g>
   <g id="line2d_9">
    <path d="M 164.497098 186.786931 
L 746.841899 183.569556 
" clip-path="url(#p42921c35bf)" style="fill: none; stroke: #0099ff; stroke-width: 0.8; stroke-linecap: square"/>
   </g>
   <g id="line2d_10">
    <path d="M 273.887834 177.134807 
L 746.841899 177.134807 
" clip-path="url(#p42921c35bf)" style="fill: none; stroke: #0099ff; stroke-width: 0.8; stroke-linecap: square"/>
   </g>
   <g id="line2d_11">
    <path d="M 685.711782 173.917432 
L 746.841899 173.917432 
" clip-path="url(#p42921c35bf)" style="fill: none; stroke: #0099ff; stroke-width: 0.8; stroke-linecap: square"/>
   </g>
   <g id="patch_2">
    <path d="M 138.758101 174.23917 
C 138.843427 174.23917 138.925269 174.205269 138.985604 174.144935 
C 139.045938 174.084601 139.079839 174.002758 139.079839 173.917432 
C 139.079839 173.832106 139.045938 173.750264 138.985604 173.68993 
C 138.925269 173.629595 138.843427 173.595695 138.758101 173.595695 
C 138.672775 173.595695 138.590933 173.629595 138.530598 173.68993 
C 138.470264 173.750264 138.436364 173.832106 138.436364 173.917432 
C 138.436364 174.002758 138.470264 174.084601 138.530598 174.144935 
C 138.590933 174.205269 138.672775 174.23917 138.758101 174.23917 
z
" clip-path="url(#p42921c35bf)" style="stroke: #000000; stroke-linejoin: miter"/>
   </g>
   <g id="patch_3">
    <path d="M 138.758101 177.456544 
C 138.843427 177.456544 138.925269 177.422644 138.985604 177.36231 
C 139.045938 177.301975 139.079839 177.220133 139.079839 177.134807 
C 139.079839 177.049481 139.045938 176.967639 138.985604 176.907304 
C 138.925269 176.84697 138.843427 176.813069 138.758101 176.813069 
C 138.672775 176.813069 138.590933 176.84697 138.530598 176.907304 
C 138.470264 176.967639 138.436364 177.049481 138.436364 177.134807 
C 138.436364 177.220133 138.470264 177.301975 138.530598 177.36231 
C 138.590933 177.422644 138.672775 177.456544 138.758101 177.456544 
z
" clip-path="url(#p42921c35bf)" style="stroke: #000000; stroke-linejoin: miter"/>
   </g>
   <g id="patch_4">
    <path d="M 138.758101 180.673919 
C 138.843427 180.673919 138.925269 180.640019 138.985604 180.579684 
C 139.045938 180.51935 139.079839 180.437507 139.079839 180.352181 
C 139.079839 180.266856 139.045938 180.185013 138.985604 180.124679 
C 138.925269 180.064344 138.843427 180.030444 138.758101 180.030444 
C 138.672775 180.030444 138.590933 180.064344 138.530598 180.124679 
C 138.470264 180.185013 138.436364 180.266856 138.436364 180.352181 
C 138.436364 180.437507 138.470264 180.51935 138.530598 180.579684 
C 138.590933 180.640019 138.672775 180.673919 138.758101 180.673919 
z
" clip-path="url(#p42921c35bf)" style="stroke: #000000; stroke-linejoin: miter"/>
   </g>
   <g id="patch_5">
    <path d="M 138.758101 183.891293 
C 138.843427 183.891293 138.925269 183.857393 138.985604 183.797059 
C 139.045938 183.736724 139.079839 183.654882 139.079839 183.569556 
C 139.079839 183.48423 139.045938 183.402388 138.985604 183.342053 
C 138.925269 183.281719 138.843427 183.247819 138.758101 183.247819 
C 138.672775 183.247819 138.590933 183.281719 138.530598 183.342053 
C 138.470264 183.402388 138.436364 183.48423 138.436364 183.569556 
C 138.436364 183.654882 138.470264 183.736724 138.530598 183.797059 
C 138.590933 183.857393 138.672775 183.891293 138.758101 183.891293 
z
" clip-path="url(#p42921c35bf)" style="stroke: #000000; stroke-linejoin: miter"/>
   </g>
   <g id="patch_6">
    <path d="M 138.758101 187.108668 
C 138.843427 187.108668 138.925269 187.074768 138.985604 187.014433 
C 139.045938 186.954099 139.079839 186.872256 139.079839 186.786931 
C 139.079839 186.701605 139.045938 186.619762 138.985604 186.559428 
C 138.925269 186.499093 138.843427 186.465193 138.758101 186.465193 
C 138.672775 186.465193 138.590933 186.499093 138.530598 186.559428 
C 138.470264 186.619762 138.436364 186.701605 138.436364 186.786931 
C 138.436364 186.872256 138.470264 186.954099 138.530598 187.014433 
C 138.590933 187.074768 138.672775 187.108668 138.758101 187.108668 
z
" clip-path="url(#p42921c35bf)" style="stroke: #000000; stroke-linejoin: miter"/>
   </g>
   <g id="patch_7">
    <path d="M 138.758101 190.326043 
C 138.843427 190.326043 138.925269 190.292142 138.985604 190.231808 
C 139.045938 190.171474 139.079839 190.089631 139.079839 190.004305 
C 139.079839 189.918979 139.045938 189.837137 138.985604 189.776802 
C 138.925269 189.716468 138.843427 189.682568 138.758101 189.682568 
C 138.672775 189.682568 138.590933 189.716468 138.530598 189.776802 
C 138.470264 189.837137 138.436364 189.918979 138.436364 190.004305 
C 138.436364 190.089631 138.470264 190.171474 138.530598 190.231808 
C 138.590933 190.292142 138.672775 190.326043 138.758101 190.326043 
z
" clip-path="url(#p42921c35bf)" style="stroke: #000000; stroke-linejoin: miter"/>
   </g>
   <g id="patch_8">
    <path d="M 164.497098 177.778282 
C 164.667749 177.778282 164.831434 177.710481 164.952103 177.589812 
C 165.072772 177.469143 165.140573 177.305458 165.140573 177.134807 
C 165.140573 176.964155 165.072772 176.80047 164.952103 176.679801 
C 164.831434 176.559133 164.667749 176.491332 164.497098 176.491332 
C 164.326446 176.491332 164.162761 176.559133 164.042092 176.679801 
C 163.921423 176.80047 163.853623 176.964155 163.853623 177.134807 
C 163.853623 177.305458 163.921423 177.469143 164.042092 177.589812 
C 164.162761 177.710481 164.326446 177.778282 164.497098 177.778282 
z
" clip-path="url(#p42921c35bf)" style="fill: #ccffcc; stroke: #000000; stroke-linejoin: miter"/>
   </g>
   <g id="patch_9">
    <path d="M 164.497098 184.213031 
C 164.667749 184.213031 164.831434 184.14523 164.952103 184.024562 
C 165.072772 183.903893 165.140573 183.740208 165.140573 183.569556 
C 165.140573 183.398904 165.072772 183.235219 164.952103 183.114551 
C 164.831434 182.993882 164.667749 182.926081 164.497098 182.926081 
C 164.326446 182.926081 164.162761 182.993882 164.042092 183.114551 
C 163.921423 183.235219 163.853623 183.398904 163.853623 183.569556 
C 163.853623 183.740208 163.921423 183.903893 164.042092 184.024562 
C 164.162761 184.14523 164.326446 184.213031 164.497098 184.213031 
z
" clip-path="url(#p42921c35bf)" style="fill: #ccffcc; stroke: #000000; stroke-linejoin: miter"/>
   </g>
   <g id="patch_10">
    <path d="M 164.497098 187.430406 
C 164.667749 187.430406 164.831434 187.362605 164.952103 187.241936 
C 165.072772 187.121267 165.140573 186.957582 165.140573 186.786931 
C 165.140573 186.616279 165.072772 186.452594 164.952103 186.331925 
C 164.831434 186.211256 164.667749 186.143456 164.497098 186.143456 
C 164.326446 186.143456 164.162761 186.211256 164.042092 186.331925 
C 163.921423 186.452594 163.853623 186.616279 163.853623 186.786931 
C 163.853623 186.957582 163.921423 187.121267 164.042092 187.241936 
C 164.162761 187.362605 164.326446 187.430406 164.497098 187.430406 
z
" clip-path="url(#p42921c35bf)" style="fill: #ccffcc; stroke: #000000; stroke-linejoin: miter"/>
   </g>
   <g id="patch_11">
    <path d="M 273.887834 177.778282 
C 274.058485 177.778282 274.222171 177.710481 274.342839 177.589812 
C 274.463508 177.469143 274.531309 177.305458 274.531309 177.134807 
C 274.531309 176.964155 274.463508 176.80047 274.342839 176.679801 
C 274.222171 176.559133 274.058485 176.491332 273.887834 176.491332 
C 273.717182 176.491332 273.553497 176.559133 273.432828 176.679801 
C 273.31216 176.80047 273.244359 176.964155 273.244359 177.134807 
C 273.244359 177.305458 273.31216 177.469143 273.432828 177.589812 
C 273.553497 177.710481 273.717182 177.778282 273.887834 177.778282 
z
" clip-path="url(#p42921c35bf)" style="fill: #ccffcc; stroke: #000000; stroke-linejoin: miter"/>
   </g>
   <g id="patch_12">
    <path d="M 685.711782 174.560907 
C 685.882433 174.560907 686.046118 174.493107 686.166787 174.372438 
C 686.287456 174.251769 686.355257 174.088084 686.355257 173.917432 
C 686.355257 173.746781 686.287456 173.583096 686.166787 173.462427 
C 686.046118 173.341758 685.882433 173.273957 685.711782 173.273957 
C 685.54113 173.273957 685.377445 173.341758 685.256776 173.462427 
C 685.136107 173.583096 685.068307 173.746781 685.068307 173.917432 
C 685.068307 174.088084 685.136107 174.251769 685.256776 174.372438 
C 685.377445 174.493107 685.54113 174.560907 685.711782 174.560907 
z
" clip-path="url(#p42921c35bf)" style="fill: #ccffcc; stroke: #000000; stroke-linejoin: miter"/>
   </g>
   <g id="patch_13">
    <path d="M 746.841899 174.23917 
C 746.927225 174.23917 747.009067 174.205269 747.069402 174.144935 
C 747.129736 174.084601 747.163636 174.002758 747.163636 173.917432 
C 747.163636 173.832106 747.129736 173.750264 747.069402 173.68993 
C 747.009067 173.629595 746.927225 173.595695 746.841899 173.595695 
C 746.756573 173.595695 746.674731 173.629595 746.614396 173.68993 
C 746.554062 173.750264 746.520161 173.832106 746.520161 173.917432 
C 746.520161 174.002758 746.554062 174.084601 746.614396 174.144935 
C 746.674731 174.205269 746.756573 174.23917 746.841899 174.23917 
z
" clip-path="url(#p42921c35bf)" style="stroke: #000000; stroke-linejoin: miter"/>
   </g>
   <g id="patch_14">
    <path d="M 746.841899 177.456544 
C 746.927225 177.456544 747.009067 177.422644 747.069402 177.36231 
C 747.129736 177.301975 747.163636 177.220133 747.163636 177.134807 
C 747.163636 177.049481 747.129736 176.967639 747.069402 176.907304 
C 747.009067 176.84697 746.927225 176.813069 746.841899 176.813069 
C 746.756573 176.813069 746.674731 176.84697 746.614396 176.907304 
C 746.554062 176.967639 746.520161 177.049481 746.520161 177.134807 
C 746.520161 177.220133 746.554062 177.301975 746.614396 177.36231 
C 746.674731 177.422644 746.756573 177.456544 746.841899 177.456544 
z
" clip-path="url(#p42921c35bf)" style="stroke: #000000; stroke-linejoin: miter"/>
   </g>
   <g id="patch_15">
    <path d="M 746.841899 180.673919 
C 746.927225 180.673919 747.009067 180.640019 747.069402 180.579684 
C 747.129736 180.51935 747.163636 180.437507 747.163636 180.352181 
C 747.163636 180.266856 747.129736 180.185013 747.069402 180.124679 
C 747.009067 180.064344 746.927225 180.030444 746.841899 180.030444 
C 746.756573 180.030444 746.674731 180.064344 746.614396 180.124679 
C 746.554062 180.185013 746.520161 180.266856 746.520161 180.352181 
C 746.520161 180.437507 746.554062 180.51935 746.614396 180.579684 
C 746.674731 180.640019 746.756573 180.673919 746.841899 180.673919 
z
" clip-path="url(#p42921c35bf)" style="stroke: #000000; stroke-linejoin: miter"/>
   </g>
   <g id="patch_16">
    <path d="M 746.841899 183.891293 
C 746.927225 183.891293 747.009067 183.857393 747.069402 183.797059 
C 747.129736 183.736724 747.163636 183.654882 747.163636 183.569556 
C 747.163636 183.48423 747.129736 183.402388 747.069402 183.342053 
C 747.009067 183.281719 746.927225 183.247819 746.841899 183.247819 
C 746.756573 183.247819 746.674731 183.281719 746.614396 183.342053 
C 746.554062 183.402388 746.520161 183.48423 746.520161 183.569556 
C 746.520161 183.654882 746.554062 183.736724 746.614396 183.797059 
C 746.674731 183.857393 746.756573 183.891293 746.841899 183.891293 
z
" clip-path="url(#p42921c35bf)" style="stroke: #000000; stroke-linejoin: miter"/>
   </g>
   <g id="patch_17">
    <path d="M 746.841899 187.108668 
C 746.927225 187.108668 747.009067 187.074768 747.069402 187.014433 
C 747.129736 186.954099 747.163636 186.872256 747.163636 186.786931 
C 747.163636 186.701605 747.129736 186.619762 747.069402 186.559428 
C 747.009067 186.499093 746.927225 186.465193 746.841899 186.465193 
C 746.756573 186.465193 746.674731 186.499093 746.614396 186.559428 
C 746.554062 186.619762 746.520161 186.701605 746.520161 186.786931 
C 746.520161 186.872256 746.554062 186.954099 746.614396 187.014433 
C 746.674731 187.074768 746.756573 187.108668 746.841899 187.108668 
z
" clip-path="url(#p42921c35bf)" style="stroke: #000000; stroke-linejoin: miter"/>
   </g>
   <g id="patch_18">
    <path d="M 746.841899 190.326043 
C 746.927225 190.326043 747.009067 190.292142 747.069402 190.231808 
C 747.129736 190.171474 747.163636 190.089631 747.163636 190.004305 
C 747.163636 189.918979 747.129736 189.837137 747.069402 189.776802 
C 747.009067 189.716468 746.927225 189.682568 746.841899 189.682568 
C 746.756573 189.682568 746.674731 189.716468 746.614396 189.776802 
C 746.554062 189.837137 746.520161 189.918979 746.520161 190.004305 
C 746.520161 190.089631 746.554062 190.171474 746.614396 190.231808 
C 746.674731 190.292142 746.756573 190.326043 746.841899 190.326043 
z
" clip-path="url(#p42921c35bf)" style="stroke: #000000; stroke-linejoin: miter"/>
   </g>
   <g id="text_1">
    <!-- 0 -->
    <g style="fill: #808080" transform="translate(137.97182 173.113089) scale(0.05 -0.05)">
     <defs>
      <path id="DejaVuSans-13" d="M 2034 4250 
Q 1547 4250 1301 3770 
Q 1056 3291 1056 2328 
Q 1056 1369 1301 889 
Q 1547 409 2034 409 
Q 2525 409 2770 889 
Q 3016 1369 3016 2328 
Q 3016 3291 2770 3770 
Q 2525 4250 2034 4250 
z
M 2034 4750 
Q 2819 4750 3233 4129 
Q 3647 3509 3647 2328 
Q 3647 1150 3233 529 
Q 2819 -91 2034 -91 
Q 1250 -91 836 529 
Q 422 1150 422 2328 
Q 422 3509 836 4129 
Q 1250 4750 2034 4750 
z
" transform="scale(0.015625)"/>
     </defs>
     <use xlink:href="#DejaVuSans-13"/>
    </g>
   </g>
   <g id="text_2">
    <!-- 1 -->
    <g style="fill: #808080" transform="translate(137.97182 176.330463) scale(0.05 -0.05)">
     <defs>
      <path id="DejaVuSans-14" d="M 794 531 
L 1825 531 
L 1825 4091 
L 703 3866 
L 703 4441 
L 1819 4666 
L 2450 4666 
L 2450 531 
L 3481 531 
L 3481 0 
L 794 0 
L 794 531 
z
" transform="scale(0.015625)"/>
     </defs>
     <use xlink:href="#DejaVuSans-14"/>
    </g>
   </g>
   <g id="text_3">
    <!-- 2 -->
    <g style="fill: #808080" transform="translate(137.97182 179.547838) scale(0.05 -0.05)">
     <defs>
      <path id="DejaVuSans-15" d="M 1228 531 
L 3431 531 
L 3431 0 
L 469 0 
L 469 531 
Q 828 903 1448 1529 
Q 2069 2156 2228 2338 
Q 2531 2678 2651 2914 
Q 2772 3150 2772 3378 
Q 2772 3750 2511 3984 
Q 2250 4219 1831 4219 
Q 1534 4219 1204 4116 
Q 875 4013 500 3803 
L 500 4441 
Q 881 4594 1212 4672 
Q 1544 4750 1819 4750 
Q 2544 4750 2975 4387 
Q 3406 4025 3406 3419 
Q 3406 3131 3298 2873 
Q 3191 2616 2906 2266 
Q 2828 2175 2409 1742 
Q 1991 1309 1228 531 
z
" transform="scale(0.015625)"/>
     </defs>
     <use xlink:href="#DejaVuSans-15"/>
    </g>
   </g>
   <g id="text_4">
    <!-- 3 -->
    <g style="fill: #808080" transform="translate(137.97182 182.765212) scale(0.05 -0.05)">
     <defs>
      <path id="DejaVuSans-16" d="M 2597 2516 
Q 3050 2419 3304 2112 
Q 3559 1806 3559 1356 
Q 3559 666 3084 287 
Q 2609 -91 1734 -91 
Q 1441 -91 1130 -33 
Q 819 25 488 141 
L 488 750 
Q 750 597 1062 519 
Q 1375 441 1716 441 
Q 2309 441 2620 675 
Q 2931 909 2931 1356 
Q 2931 1769 2642 2001 
Q 2353 2234 1838 2234 
L 1294 2234 
L 1294 2753 
L 1863 2753 
Q 2328 2753 2575 2939 
Q 2822 3125 2822 3475 
Q 2822 3834 2567 4026 
Q 2313 4219 1838 4219 
Q 1578 4219 1281 4162 
Q 984 4106 628 3988 
L 628 4550 
Q 988 4650 1302 4700 
Q 1616 4750 1894 4750 
Q 2613 4750 3031 4423 
Q 3450 4097 3450 3541 
Q 3450 3153 3228 2886 
Q 3006 2619 2597 2516 
z
" transform="scale(0.015625)"/>
     </defs>
     <use xlink:href="#DejaVuSans-16"/>
    </g>
   </g>
   <g id="text_5">
    <!-- 4 -->
    <g style="fill: #808080" transform="translate(137.97182 185.982587) scale(0.05 -0.05)">
     <defs>
      <path id="DejaVuSans-17" d="M 2419 4116 
L 825 1625 
L 2419 1625 
L 2419 4116 
z
M 2253 4666 
L 3047 4666 
L 3047 1625 
L 3713 1625 
L 3713 1100 
L 3047 1100 
L 3047 0 
L 2419 0 
L 2419 1100 
L 313 1100 
L 313 1709 
L 2253 4666 
z
" transform="scale(0.015625)"/>
     </defs>
     <use xlink:href="#DejaVuSans-17"/>
    </g>
   </g>
   <g id="text_6">
    <!-- 5 -->
    <g style="fill: #808080" transform="translate(137.97182 189.199962) scale(0.05 -0.05)">
     <defs>
      <path id="DejaVuSans-18" d="M 691 4666 
L 3169 4666 
L 3169 4134 
L 1269 4134 
L 1269 2991 
Q 1406 3038 1543 3061 
Q 1681 3084 1819 3084 
Q 2600 3084 3056 2656 
Q 3513 2228 3513 1497 
Q 3513 744 3044 326 
Q 2575 -91 1722 -91 
Q 1428 -91 1123 -41 
Q 819 9 494 109 
L 494 744 
Q 775 591 1075 516 
Q 1375 441 1709 441 
Q 2250 441 2565 725 
Q 2881 1009 2881 1497 
Q 2881 1984 2565 2268 
Q 2250 2553 1709 2553 
Q 1456 2553 1204 2497 
Q 953 2441 691 2322 
L 691 4666 
z
" transform="scale(0.015625)"/>
     </defs>
     <use xlink:href="#DejaVuSans-18"/>
    </g>
   </g>
   <g id="text_7">
    <!-- 48 -->
    <g style="fill: #808080" transform="translate(162.120191 176.330463) scale(0.05 -0.05)">
     <defs>
      <path id="DejaVuSans-1b" d="M 2034 2216 
Q 1584 2216 1326 1975 
Q 1069 1734 1069 1313 
Q 1069 891 1326 650 
Q 1584 409 2034 409 
Q 2484 409 2743 651 
Q 3003 894 3003 1313 
Q 3003 1734 2745 1975 
Q 2488 2216 2034 2216 
z
M 1403 2484 
Q 997 2584 770 2862 
Q 544 3141 544 3541 
Q 544 4100 942 4425 
Q 1341 4750 2034 4750 
Q 2731 4750 3128 4425 
Q 3525 4100 3525 3541 
Q 3525 3141 3298 2862 
Q 3072 2584 2669 2484 
Q 3125 2378 3379 2068 
Q 3634 1759 3634 1313 
Q 3634 634 3220 271 
Q 2806 -91 2034 -91 
Q 1263 -91 848 271 
Q 434 634 434 1313 
Q 434 1759 690 2068 
Q 947 2378 1403 2484 
z
M 1172 3481 
Q 1172 3119 1398 2916 
Q 1625 2713 2034 2713 
Q 2441 2713 2670 2916 
Q 2900 3119 2900 3481 
Q 2900 3844 2670 4047 
Q 2441 4250 2034 4250 
Q 1625 4250 1398 4047 
Q 1172 3844 1172 3481 
z
" transform="scale(0.015625)"/>
     </defs>
     <use xlink:href="#DejaVuSans-17"/>
     <use xlink:href="#DejaVuSans-1b" transform="translate(63.625 0)"/>
    </g>
   </g>
   <g id="text_8">
    <!-- π -->
    <g style="fill: #0000ff" transform="translate(162.088973 178.743494) scale(0.08 -0.08)">
     <defs>
      <path id="DejaVuSans-354" d="M 231 3500 
L 3584 3500 
L 3584 2925 
L 3144 2925 
L 3144 775 
Q 3144 550 3220 451 
Q 3297 353 3469 353 
Q 3516 353 3584 361 
Q 3653 369 3675 372 
L 3675 -44 
Q 3566 -84 3450 -103 
Q 3334 -122 3219 -122 
Q 2844 -122 2700 83 
Q 2556 288 2556 838 
L 2556 2925 
L 1266 2925 
L 1266 0 
L 678 0 
L 678 2925 
L 231 2925 
L 231 3500 
z
" transform="scale(0.015625)"/>
     </defs>
     <use xlink:href="#DejaVuSans-354"/>
    </g>
   </g>
   <g id="text_9">
    <!-- 58 -->
    <g style="fill: #808080" transform="translate(162.120191 182.765212) scale(0.05 -0.05)">
     <use xlink:href="#DejaVuSans-18"/>
     <use xlink:href="#DejaVuSans-1b" transform="translate(63.625 0)"/>
    </g>
   </g>
   <g id="text_10">
    <!-- π -->
    <g style="fill: #0000ff" transform="translate(162.088973 185.178243) scale(0.08 -0.08)">
     <use xlink:href="#DejaVuSans-354"/>
    </g>
   </g>
   <g id="text_11">
    <!-- 63 -->
    <g style="fill: #808080" transform="translate(162.120191 185.982587) scale(0.05 -0.05)">
     <defs>
      <path id="DejaVuSans-19" d="M 2113 2584 
Q 1688 2584 1439 2293 
Q 1191 2003 1191 1497 
Q 1191 994 1439 701 
Q 1688 409 2113 409 
Q 2538 409 2786 701 
Q 3034 994 3034 1497 
Q 3034 2003 2786 2293 
Q 2538 2584 2113 2584 
z
M 3366 4563 
L 3366 3988 
Q 3128 4100 2886 4159 
Q 2644 4219 2406 4219 
Q 1781 4219 1451 3797 
Q 1122 3375 1075 2522 
Q 1259 2794 1537 2939 
Q 1816 3084 2150 3084 
Q 2853 3084 3261 2657 
Q 3669 2231 3669 1497 
Q 3669 778 3244 343 
Q 2819 -91 2113 -91 
Q 1303 -91 875 529 
Q 447 1150 447 2328 
Q 447 3434 972 4092 
Q 1497 4750 2381 4750 
Q 2619 4750 2861 4703 
Q 3103 4656 3366 4563 
z
" transform="scale(0.015625)"/>
     </defs>
     <use xlink:href="#DejaVuSans-19"/>
     <use xlink:href="#DejaVuSans-16" transform="translate(63.625 0)"/>
    </g>
   </g>
   <g id="text_12">
    <!-- π -->
    <g style="fill: #0000ff" transform="translate(162.088973 188.395618) scale(0.08 -0.08)">
     <use xlink:href="#DejaVuSans-354"/>
    </g>
   </g>
   <g id="text_13">
    <!-- 123 -->
    <g style="fill: #808080" transform="translate(269.920303 176.330463) scale(0.05 -0.05)">
     <use xlink:href="#DejaVuSans-14"/>
     <use xlink:href="#DejaVuSans-15" transform="translate(63.625 0)"/>
     <use xlink:href="#DejaVuSans-16" transform="translate(127.25 0)"/>
    </g>
   </g>
   <g id="text_14">
    <!-- π -->
    <g style="fill: #0000ff" transform="translate(271.479709 178.743494) scale(0.08 -0.08)">
     <use xlink:href="#DejaVuSans-354"/>
    </g>
   </g>
   <g id="text_15">
    <!-- 343 -->
    <g style="fill: #808080" transform="translate(681.74425 173.113089) scale(0.05 -0.05)">
     <use xlink:href="#DejaVuSans-16"/>
     <use xlink:href="#DejaVuSans-17" transform="translate(63.625 0)"/>
     <use xlink:href="#DejaVuSans-16" transform="translate(127.25 0)"/>
    </g>
   </g>
   <g id="text_16">
    <!-- π -->
    <g style="fill: #0000ff" transform="translate(683.303657 175.52612) scale(0.08 -0.08)">
     <use xlink:href="#DejaVuSans-354"/>
    </g>
   </g>
   <g id="text_17">
    <!-- 373 -->
    <g style="fill: #808080" transform="translate(742.874368 173.113089) scale(0.05 -0.05)">
     <defs>
      <path id="DejaVuSans-1a" d="M 525 4666 
L 3525 4666 
L 3525 4397 
L 1831 0 
L 1172 0 
L 2766 4134 
L 525 4134 
L 525 4666 
z
" transform="scale(0.015625)"/>
     </defs>
     <use xlink:href="#DejaVuSans-16"/>
     <use xlink:href="#DejaVuSans-1a" transform="translate(63.625 0)"/>
     <use xlink:href="#DejaVuSans-16" transform="translate(127.25 0)"/>
    </g>
   </g>
   <g id="text_18">
    <!-- 374 -->
    <g style="fill: #808080" transform="translate(742.874368 176.330463) scale(0.05 -0.05)">
     <use xlink:href="#DejaVuSans-16"/>
     <use xlink:href="#DejaVuSans-1a" transform="translate(63.625 0)"/>
     <use xlink:href="#DejaVuSans-17" transform="translate(127.25 0)"/>
    </g>
   </g>
   <g id="text_19">
    <!-- 375 -->
    <g style="fill: #808080" transform="translate(742.874368 179.547838) scale(0.05 -0.05)">
     <use xlink:href="#DejaVuSans-16"/>
     <use xlink:href="#DejaVuSans-1a" transform="translate(63.625 0)"/>
     <use xlink:href="#DejaVuSans-18" transform="translate(127.25 0)"/>
    </g>
   </g>
   <g id="text_20">
    <!-- 376 -->
    <g style="fill: #808080" transform="translate(742.874368 182.765212) scale(0.05 -0.05)">
     <use xlink:href="#DejaVuSans-16"/>
     <use xlink:href="#DejaVuSans-1a" transform="translate(63.625 0)"/>
     <use xlink:href="#DejaVuSans-19" transform="translate(127.25 0)"/>
    </g>
   </g>
   <g id="text_21">
    <!-- 377 -->
    <g style="fill: #808080" transform="translate(742.874368 185.982587) scale(0.05 -0.05)">
     <use xlink:href="#DejaVuSans-16"/>
     <use xlink:href="#DejaVuSans-1a" transform="translate(63.625 0)"/>
     <use xlink:href="#DejaVuSans-1a" transform="translate(127.25 0)"/>
    </g>
   </g>
   <g id="text_22">
    <!-- 378 -->
    <g style="fill: #808080" transform="translate(742.874368 189.199962) scale(0.05 -0.05)">
     <use xlink:href="#DejaVuSans-16"/>
     <use xlink:href="#DejaVuSans-1a" transform="translate(63.625 0)"/>
     <use xlink:href="#DejaVuSans-1b" transform="translate(127.25 0)"/>
    </g>
   </g>
  </g>
 </g>
 <defs>
  <clipPath id="p42921c35bf">
   <rect x="108" y="43.2" width="669.6" height="277.2"/>
  </clipPath>
 </defs>
</svg>
