<?xml version="1.0" encoding="utf-8" standalone="no"?>
<!DOCTYPE svg PUBLIC "-//W3C//DTD SVG 1.1//EN"
  "http://www.w3.org/Graphics/SVG/1.1/DTD/svg11.dtd">
<svg xmlns:xlink="http://www.w3.org/1999/xlink" width="864pt" height="360pt" viewBox="0 0 864 360" xmlns="http://www.w3.org/2000/svg" version="1.1">
 <metadata>
  <rdf:RDF xmlns:dc="http://purl.org/dc/elements/1.1/" xmlns:cc="http://creativecommons.org/ns#" xmlns:rdf="http://www.w3.org/1999/02/22-rdf-syntax-ns#">
   <cc:Work>
    <dc:type rdf:resource="http://purl.org/dc/dcmitype/StillImage"/>
    <dc:date>2026-10-02T10:53:58.736403</dc:date>
    <dc:format>image/svg+xml</dc:format>
    <dc:creator>
     <cc:Agent>
      <dc:title>Matplotlib v3.11.2, https://matplotlib.org/</dc:title>
     </cc:Agent>
    </dc:creator>
   </cc:Work>
  </rdf:RDF>
 </metadata>
 <defs>
  <style type="text/css">*{stroke-linejoin: round; stroke-linecap: butt}</style>
 </defs>
 <g id="figure_1">
  <g id="patch_1">
   <path d="M 0 360 
L 864 360 
L 864 0 
L 0 0 
z
" style="fill: #ffffff"/>
  </g>
  <g id="axes_1">
   <g id="line2d_1">
    <path d="M 139.118793 164.739258 
L 145.94309 164.739258 
" clip-path="url(#p24ae71bfaa)" style="fill: none; stroke: #000000; stroke-width: 0.8; stroke-linecap: square"/>
   </g>
   <g id="line2d_2">
    <path d="M 139.118793 171.563555 
L 316.55051 192.036445 
" clip-path="url(#p24ae71bfaa)" style="fill: none; stroke: #0099ff; stroke-width: 0.8; stroke-linecap: square"/>
   </g>
   <g id="line2d_3">
    <path d="M 139.118793 178.387852 
L 425.739258 198.860742 
" clip-path="url(#p24ae71bfaa)" style="fill: none; stroke: #0099ff; stroke-width: 0.8; stroke-linecap: square"/>
   </g>
   <g id="line2d_4">
    <path d="M 139.118793 185.212148 
L 145.94309 185.212148 
" clip-path="url(#p24ae71bfaa)" style="fill: none; stroke: #000000; stroke-width: 0.8; stroke-linecap: square"/>
   </g>
   <g id="line2d_5">
    <path d="M 139.118793 192.036445 
L 746.481207 192.036445 
" clip-path="url(#p24ae71bfaa)" style="fill: none; stroke: #000000; stroke-width: 0.8; stroke-linecap: square"/>
   </g>
   <g id="line2d_6">
    <path d="M 139.118793 198.860742 
L 705.535426 198.860742 
" clip-path="url(#p24ae71bfaa)" style="fill: none; stroke: #0099ff; stroke-width: 0.8; stroke-linecap: square"/>
   </g>
   <g id="line2d_7">
    <path d="M 145.94309 164.739258 
L 207.361761 185.212148 
" clip-path="url(#p24ae71bfaa)" style="fill: none; stroke: #0099ff; stroke-width: 0.8; stroke-linecap: square"/>
   </g>
   <g id="line2d_8">
    <path d="M 145.94309 164.739258 
L 145.94309 185.212148 
" clip-path="url(#p24ae71bfaa)" style="fill: none; stroke: #0099ff; stroke-width: 0.8; stroke-linecap: square"/>
   </g>
   <g id="line2d_9">
    <path d="M 145.94309 185.212148 
L 309.726213 164.739258 
" clip-path="url(#p24ae71bfaa)" style="fill: none; stroke: #0099ff; stroke-width: 0.8; stroke-linecap: square"/>
   </g>
   <g id="line2d_10">
    <path d="M 207.361761 185.212148 
L 309.726213 164.739258 
" clip-path="url(#p24ae71bfaa)" style="fill: none; stroke: #0099ff; stroke-width: 0.8; stroke-linecap: square"/>
   </g>
   <g id="line2d_11">
    <path d="M 207.361761 185.212148 
L 746.481207 185.212148 
" clip-path="url(#p24ae71bfaa)" style="fill: none; stroke: #000000; stroke-width: 0.8; stroke-linecap: square"/>
   </g>
   <g id="line2d_12">
    <path d="M 316.55051 192.036445 
L 705.535426 198.860742 
" clip-path="url(#p24ae71bfaa)" style="fill: none; stroke: #0099ff; stroke-width: 0.8; stroke-linecap: square"/>
   </g>
   <g id="line2d_13">
    <path d="M 316.55051 192.036445 
L 746.481207 171.563555 
" clip-path="url(#p24ae71bfaa)" style="fill: none; stroke: #0099ff; stroke-width: 0.8; stroke-linecap: square"/>
   </g>
   <g id="line2d_14">
    <path d="M 425.739258 198.860742 
L 705.535426 198.860742 
" clip-path="url(#p24ae71bfaa)" style="fill: none; stroke: #0099ff; stroke-width: 0.8; stroke-linecap: square"/>
   </g>
   <g id="line2d_15">
    <path d="M 425.739258 198.860742 
L 746.481207 178.387852 
" clip-path="url(#p24ae71bfaa)" style="fill: none; stroke: #0099ff; stroke-width: 0.8; stroke-linecap: square"/>
   </g>
   <g id="line2d_16">
    <path d="M 705.535426 198.860742 
L 746.481207 198.860742 
" clip-path="url(#p24ae71bfaa)" style="fill: none; stroke: #0099ff; stroke-width: 0.8; stroke-linecap: square"/>
   </g>
   <g id="line2d_17">
    <path d="M 309.726213 164.739258 
L 746.481207 164.739258 
" clip-path="url(#p24ae71bfaa)" style="fill: none; stroke: #000000; stroke-width: 0.8; stroke-linecap: square"/>
   </g>
   <g id="patch_2">
    <path d="M 139.118793 165.421688 
C 139.299776 165.421688 139.47337 165.349783 139.601344 165.221809 
C 139.729318 165.093835 139.801223 164.920241 139.801223 164.739258 
C 139.801223 164.558276 139.729318 164.384681 139.601344 164.256707 
C 139.47337 164.128733 139.299776 164.056828 139.118793 164.056828 
C 138.937811 164.056828 138.764217 164.128733 138.636243 164.256707 
C 138.508269 164.384681 138.436364 164.558276 138.436364 164.739258 
C 138.436364 164.920241 138.508269 165.093835 138.636243 165.221809 
C 138.764217 165.349783 138.937811 165.421688 139.118793 165.421688 
z
" clip-path="url(#p24ae71bfaa)" style="stroke: #000000; stroke-linejoin: miter"/>
   </g>
   <g id="patch_3">
    <path d="M 139.118793 172.245985 
C 139.299776 172.245985 139.47337 172.174079 139.601344 172.046105 
C 139.729318 171.918132 139.801223 171.744537 139.801223 171.563555 
C 139.801223 171.382572 139.729318 171.208978 139.601344 171.081004 
C 139.47337 170.95303 139.299776 170.881125 139.118793 170.881125 
C 138.937811 170.881125 138.764217 170.95303 138.636243 171.081004 
C 138.508269 171.208978 138.436364 171.382572 138.436364 171.563555 
C 138.436364 171.744537 138.508269 171.918132 138.636243 172.046105 
C 138.764217 172.174079 138.937811 172.245985 139.118793 172.245985 
z
" clip-path="url(#p24ae71bfaa)" style="stroke: #000000; stroke-linejoin: miter"/>
   </g>
   <g id="patch_4">
    <path d="M 139.118793 179.070281 
C 139.299776 179.070281 139.47337 178.998376 139.601344 178.870402 
C 139.729318 178.742428 139.801223 178.568834 139.801223 178.387852 
C 139.801223 178.206869 139.729318 178.033275 139.601344 177.905301 
C 139.47337 177.777327 139.299776 177.705422 139.118793 177.705422 
C 138.937811 177.705422 138.764217 177.777327 138.636243 177.905301 
C 138.508269 178.033275 138.436364 178.206869 138.436364 178.387852 
C 138.436364 178.568834 138.508269 178.742428 138.636243 178.870402 
C 138.764217 178.998376 138.937811 179.070281 139.118793 179.070281 
z
" clip-path="url(#p24ae71bfaa)" style="stroke: #000000; stroke-linejoin: miter"/>
   </g>
   <g id="patch_5">
    <path d="M 139.118793 185.894578 
C 139.299776 185.894578 139.47337 185.822673 139.601344 185.694699 
C 139.729318 185.566725 139.801223 185.393131 139.801223 185.212148 
C 139.801223 185.031166 139.729318 184.857572 139.601344 184.729598 
C 139.47337 184.601624 139.299776 184.529719 139.118793 184.529719 
C 138.937811 184.529719 138.764217 184.601624 138.636243 184.729598 
C 138.508269 184.857572 138.436364 185.031166 138.436364 185.212148 
C 138.436364 185.393131 138.508269 185.566725 138.636243 185.694699 
C 138.764217 185.822673 138.937811 185.894578 139.118793 185.894578 
z
" clip-path="url(#p24ae71bfaa)" style="stroke: #000000; stroke-linejoin: miter"/>
   </g>
   <g id="patch_6">
    <path d="M 139.118793 192.718875 
C 139.299776 192.718875 139.47337 192.64697 139.601344 192.518996 
C 139.729318 192.391022 139.801223 192.217428 139.801223 192.036445 
C 139.801223 191.855463 139.729318 191.681868 139.601344 191.553895 
C 139.47337 191.425921 139.299776 191.354015 139.118793 191.354015 
C 138.937811 191.354015 138.764217 191.425921 138.636243 191.553895 
C 138.508269 191.681868 138.436364 191.855463 138.436364 192.036445 
C 138.436364 192.217428 138.508269 192.391022 138.636243 192.518996 
C 138.764217 192.64697 138.937811 192.718875 139.118793 192.718875 
z
" clip-path="url(#p24ae71bfaa)" style="stroke: #000000; stroke-linejoin: miter"/>
   </g>
   <g id="patch_7">
    <path d="M 139.118793 199.543172 
C 139.299776 199.543172 139.47337 199.471267 139.601344 199.343293 
C 139.729318 199.215319 139.801223 199.041724 139.801223 198.860742 
C 139.801223 198.679759 139.729318 198.506165 139.601344 198.378191 
C 139.47337 198.250217 139.299776 198.178312 139.118793 198.178312 
C 138.937811 198.178312 138.764217 198.250217 138.636243 198.378191 
C 138.508269 198.506165 138.436364 198.679759 138.436364 198.860742 
C 138.436364 199.041724 138.508269 199.215319 138.636243 199.343293 
C 138.764217 199.471267 138.937811 199.543172 139.118793 199.543172 
z
" clip-path="url(#p24ae71bfaa)" style="stroke: #000000; stroke-linejoin: miter"/>
   </g>
   <g id="patch_8">
    <path d="M 145.94309 166.104117 
C 146.305055 166.104117 146.652244 165.960307 146.908191 165.704359 
C 147.164139 165.448411 147.307949 165.101223 147.307949 164.739258 
C 147.307949 164.377293 147.164139 164.030105 146.908191 163.774157 
C 146.652244 163.518209 146.305055 163.374399 145.94309 163.374399 
C 145.581125 163.374399 145.233937 163.518209 144.977989 163.774157 
C 144.722041 164.030105 144.578231 164.377293 144.578231 164.739258 
C 144.578231 165.101223 144.722041 165.448411 144.977989 165.704359 
C 145.233937 165.960307 145.581125 166.104117 145.94309 166.104117 
z
" clip-path="url(#p24ae71bfaa)" style="fill: #ccffcc; stroke: #000000; stroke-linejoin: miter"/>
   </g>
   <g id="patch_9">
    <path d="M 145.94309 186.577008 
C 146.305055 186.577008 146.652244 186.433198 146.908191 186.17725 
C 147.164139 185.921302 147.307949 185.574113 147.307949 185.212148 
C 147.307949 184.850183 147.164139 184.502995 146.908191 184.247047 
C 146.652244 183.991099 146.305055 183.847289 145.94309 183.847289 
C 145.581125 183.847289 145.233937 183.991099 144.977989 184.247047 
C 144.722041 184.502995 144.578231 184.850183 144.578231 185.212148 
C 144.578231 185.574113 144.722041 185.921302 144.977989 186.17725 
C 145.233937 186.433198 145.581125 186.577008 145.94309 186.577008 
z
" clip-path="url(#p24ae71bfaa)" style="fill: #ccffcc; stroke: #000000; stroke-linejoin: miter"/>
   </g>
   <g id="patch_10">
    <path d="M 207.361761 186.577008 
C 207.723726 186.577008 208.070915 186.433198 208.326862 186.17725 
C 208.58281 185.921302 208.72662 185.574113 208.72662 185.212148 
C 208.72662 184.850183 208.58281 184.502995 208.326862 184.247047 
C 208.070915 183.991099 207.723726 183.847289 207.361761 183.847289 
C 206.999796 183.847289 206.652608 183.991099 206.39666 184.247047 
C 206.140712 184.502995 205.996902 184.850183 205.996902 185.212148 
C 205.996902 185.574113 206.140712 185.921302 206.39666 186.17725 
C 206.652608 186.433198 206.999796 186.577008 207.361761 186.577008 
z
" clip-path="url(#p24ae71bfaa)" style="fill: #ccffcc; stroke: #000000; stroke-linejoin: miter"/>
   </g>
   <g id="patch_11">
    <path d="M 316.55051 193.401305 
C 316.912475 193.401305 317.259663 193.257494 317.515611 193.001546 
C 317.771559 192.745599 317.915369 192.39841 317.915369 192.036445 
C 317.915369 191.67448 317.771559 191.327292 317.515611 191.071344 
C 317.259663 190.815396 316.912475 190.671586 316.55051 190.671586 
C 316.188545 190.671586 315.841356 190.815396 315.585408 191.071344 
C 315.32946 191.327292 315.18565 191.67448 315.18565 192.036445 
C 315.18565 192.39841 315.32946 192.745599 315.585408 193.001546 
C 315.841356 193.257494 316.188545 193.401305 316.55051 193.401305 
z
" clip-path="url(#p24ae71bfaa)" style="fill: #ccffcc; stroke: #000000; stroke-linejoin: miter"/>
   </g>
   <g id="patch_12">
    <path d="M 425.739258 200.225601 
C 426.101223 200.225601 426.448411 200.081791 426.704359 199.825843 
C 426.960307 199.569895 427.104117 199.222707 427.104117 198.860742 
C 427.104117 198.498777 426.960307 198.151589 426.704359 197.895641 
C 426.448411 197.639693 426.101223 197.495883 425.739258 197.495883 
C 425.377293 197.495883 425.030105 197.639693 424.774157 197.895641 
C 424.518209 198.151589 424.374399 198.498777 424.374399 198.860742 
C 424.374399 199.222707 424.518209 199.569895 424.774157 199.825843 
C 425.030105 200.081791 425.377293 200.225601 425.739258 200.225601 
z
" clip-path="url(#p24ae71bfaa)" style="fill: #ccffcc; stroke: #000000; stroke-linejoin: miter"/>
   </g>
   <g id="patch_13">
    <path d="M 705.535426 200.225601 
C 705.897391 200.225601 706.244579 200.081791 706.500527 199.825843 
C 706.756475 199.569895 706.900285 199.222707 706.900285 198.860742 
C 706.900285 198.498777 706.756475 198.151589 706.500527 197.895641 
C 706.244579 197.639693 705.897391 197.495883 705.535426 197.495883 
C 705.173461 197.495883 704.826273 197.639693 704.570325 197.895641 
C 704.314377 198.151589 704.170567 198.498777 704.170567 198.860742 
C 704.170567 199.222707 704.314377 199.569895 704.570325 199.825843 
C 704.826273 200.081791 705.173461 200.225601 705.535426 200.225601 
z
" clip-path="url(#p24ae71bfaa)" style="fill: #ccffcc; stroke: #000000; stroke-linejoin: miter"/>
   </g>
   <g id="patch_14">
    <path d="M 309.726213 166.104117 
C 310.088178 166.104117 310.435366 165.960307 310.691314 165.704359 
C 310.947262 165.448411 311.091072 165.101223 311.091072 164.739258 
C 311.091072 164.377293 310.947262 164.030105 310.691314 163.774157 
C 310.435366 163.518209 310.088178 163.374399 309.726213 163.374399 
C 309.364248 163.374399 309.017059 163.518209 308.761111 163.774157 
C 308.505164 164.030105 308.361353 164.377293 308.361353 164.739258 
C 308.361353 165.101223 308.505164 165.448411 308.761111 165.704359 
C 309.017059 165.960307 309.364248 166.104117 309.726213 166.104117 
z
" clip-path="url(#p24ae71bfaa)" style="fill: #ccffcc; stroke: #000000; stroke-linejoin: miter"/>
   </g>
   <g id="patch_15">
    <path d="M 746.481207 165.421688 
C 746.662189 165.421688 746.835783 165.349783 746.963757 165.221809 
C 747.091731 165.093835 747.163636 164.920241 747.163636 164.739258 
C 747.163636 164.558276 747.091731 164.384681 746.963757 164.256707 
C 746.835783 164.128733 746.662189 164.056828 746.481207 164.056828 
C 746.300224 164.056828 746.12663 164.128733 745.998656 164.256707 
C 745.870682 164.384681 745.798777 164.558276 745.798777 164.739258 
C 745.798777 164.920241 745.870682 165.093835 745.998656 165.221809 
C 746.12663 165.349783 746.300224 165.421688 746.481207 165.421688 
z
" clip-path="url(#p24ae71bfaa)" style="stroke: #000000; stroke-linejoin: miter"/>
   </g>
   <g id="patch_16">
    <path d="M 746.481207 172.245985 
C 746.662189 172.245985 746.835783 172.174079 746.963757 172.046105 
C 747.091731 171.918132 747.163636 171.744537 747.163636 171.563555 
C 747.163636 171.382572 747.091731 171.208978 746.963757 171.081004 
C 746.835783 170.95303 746.662189 170.881125 746.481207 170.881125 
C 746.300224 170.881125 746.12663 170.95303 745.998656 171.081004 
C 745.870682 171.208978 745.798777 171.382572 745.798777 171.563555 
C 745.798777 171.744537 745.870682 171.918132 745.998656 172.046105 
C 746.12663 172.174079 746.300224 172.245985 746.481207 172.245985 
z
" clip-path="url(#p24ae71bfaa)" style="stroke: #000000; stroke-linejoin: miter"/>
   </g>
   <g id="patch_17">
    <path d="M 746.481207 179.070281 
C 746.662189 179.070281 746.835783 178.998376 746.963757 178.870402 
C 747.091731 178.742428 747.163636 178.568834 747.163636 178.387852 
C 747.163636 178.206869 747.091731 178.033275 746.963757 177.905301 
C 746.835783 177.777327 746.662189 177.705422 746.481207 177.705422 
C 746.300224 177.705422 746.12663 177.777327 745.998656 177.905301 
C 745.870682 178.033275 745.798777 178.206869 745.798777 178.387852 
C 745.798777 178.568834 745.870682 178.742428 745.998656 178.870402 
C 746.12663 178.998376 746.300224 179.070281 746.481207 179.070281 
z
" clip-path="url(#p24ae71bfaa)" style="stroke: #000000; stroke-linejoin: miter"/>
   </g>
   <g id="patch_18">
    <path d="M 746.481207 185.894578 
C 746.662189 185.894578 746.835783 185.822673 746.963757 185.694699 
C 747.091731 185.566725 747.163636 185.393131 747.163636 185.212148 
C 747.163636 185.031166 747.091731 184.857572 746.963757 184.729598 
C 746.835783 184.601624 746.662189 184.529719 746.481207 184.529719 
C 746.300224 184.529719 746.12663 184.601624 745.998656 184.729598 
C 745.870682 184.857572 745.798777 185.031166 745.798777 185.212148 
C 745.798777 185.393131 745.870682 185.566725 745.998656 185.694699 
C 746.12663 185.822673 746.300224 185.894578 746.481207 185.894578 
z
" clip-path="url(#p24ae71bfaa)" style="stroke: #000000; stroke-linejoin: miter"/>
   </g>
   <g id="patch_19">
    <path d="M 746.481207 192.718875 
C 746.662189 192.718875 746.835783 192.64697 746.963757 192.518996 
C 747.091731 192.391022 747.163636 192.217428 747.163636 192.036445 
C 747.163636 191.855463 747.091731 191.681868 746.963757 191.553895 
C 746.835783 191.425921 746.662189 191.354015 746.481207 191.354015 
C 746.300224 191.354015 746.12663 191.425921 745.998656 191.553895 
C 745.870682 191.681868 745.798777 191.855463 745.798777 192.036445 
C 745.798777 192.217428 745.870682 192.391022 745.998656 192.518996 
C 746.12663 192.64697 746.300224 192.718875 746.481207 192.718875 
z
" clip-path="url(#p24ae71bfaa)" style="stroke: #000000; stroke-linejoin: miter"/>
   </g>
   <g id="patch_20">
    <path d="M 746.481207 199.543172 
C 746.662189 199.543172 746.835783 199.471267 746.963757 199.343293 
C 747.091731 199.215319 747.163636 199.041724 747.163636 198.860742 
C 747.163636 198.679759 747.091731 198.506165 746.963757 198.378191 
C 746.835783 198.250217 746.662189 198.178312 746.481207 198.178312 
C 746.300224 198.178312 746.12663 198.250217 745.998656 198.378191 
C 745.870682 198.506165 745.798777 198.679759 745.798777 198.860742 
C 745.798777 199.041724 745.870682 199.215319 745.998656 199.343293 
C 746.12663 199.471267 746.300224 199.543172 746.481207 199.543172 
z
" clip-path="url(#p24ae71bfaa)" style="stroke: #000000; stroke-linejoin: miter"/>
   </g>
   <g id="text_1">
    <!-- 0 -->
    <g style="fill: #808080" transform="translate(139.234243 163.033184) scale(0.05 -0.05)">
     <defs>
      <path id="DejaVuSans-13" d="M 2034 4250 
Q 1547 4250 1301 3770 
Q 1056 3291 1056 2328 
Q 1056 1369 1301 889 
Q 1547 409 2034 409 
Q 2525 409 2770 889 
Q 3016 1369 3016 2328 
Q 3016 3291 2770 3770 
Q 2525 4250 2034 4250 
z
M 2034 4750 
Q 2819 4750 3233 4129 
Q 3647 3509 3647 2328 
Q 3647 1150 3233 529 
Q 2819 -91 2034 -91 
Q 1250 -91 836 529 
Q 422 1150 422 2328 
Q 422 3509 836 4129 
Q 1250 4750 2034 4750 
z
" transform="scale(0.015625)"/>
     </defs>
     <use xlink:href="#DejaVuSans-13"/>
    </g>
   </g>
   <g id="text_2">
    <!-- 1 -->
    <g style="fill: #808080" transform="translate(139.234243 169.857481) scale(0.05 -0.05)">
     <defs>
      <path id="DejaVuSans-14" d="M 794 531 
L 1825 531 
L 1825 4091 
L 703 3866 
L 703 4441 
L 1819 4666 
L 2450 4666 
L 2450 531 
L 3481 531 
L 3481 0 
L 794 0 
L 794 531 
z
" transform="scale(0.015625)"/>
     </defs>
     <use xlink:href="#DejaVuSans-14"/>
    </g>
   </g>
   <g id="text_3">
    <!-- 2 -->
    <g style="fill: #808080" transform="translate(139.234243 176.681777) scale(0.05 -0.05)">
     <defs>
      <path id="DejaVuSans-15" d="M 1228 531 
L 3431 531 
L 3431 0 
L 469 0 
L 469 531 
Q 828 903 1448 1529 
Q 2069 2156 2228 2338 
Q 2531 2678 2651 2914 
Q 2772 3150 2772 3378 
Q 2772 3750 2511 3984 
Q 2250 4219 1831 4219 
Q 1534 4219 1204 4116 
Q 875 4013 500 3803 
L 500 4441 
Q 881 4594 1212 4672 
Q 1544 4750 1819 4750 
Q 2544 4750 2975 4387 
Q 3406 4025 3406 3419 
Q 3406 3131 3298 2873 
Q 3191 2616 2906 2266 
Q 2828 2175 2409 1742 
Q 1991 1309 1228 531 
z
" transform="scale(0.015625)"/>
     </defs>
     <use xlink:href="#DejaVuSans-15"/>
    </g>
   </g>
   <g id="text_4">
    <!-- 3 -->
    <g style="fill: #808080" transform="translate(139.234243 183.506074) scale(0.05 -0.05)">
     <defs>
      <path id="DejaVuSans-16" d="M 2597 2516 
Q 3050 2419 3304 2112 
Q 3559 1806 3559 1356 
Q 3559 666 3084 287 
Q 2609 -91 1734 -91 
Q 1441 -91 1130 -33 
Q 819 25 488 141 
L 488 750 
Q 750 597 1062 519 
Q 1375 441 1716 441 
Q 2309 441 2620 675 
Q 2931 909 2931 1356 
Q 2931 1769 2642 2001 
Q 2353 2234 1838 2234 
L 1294 2234 
L 1294 2753 
L 1863 2753 
Q 2328 2753 2575 2939 
Q 2822 3125 2822 3475 
Q 2822 3834 2567 4026 
Q 2313 4219 1838 4219 
Q 1578 4219 1281 4162 
Q 984 4106 628 3988 
L 628 4550 
Q 988 4650 1302 4700 
Q 1616 4750 1894 4750 
Q 2613 4750 3031 4423 
Q 3450 4097 3450 3541 
Q 3450 3153 3228 2886 
Q 3006 2619 2597 2516 
z
" transform="scale(0.015625)"/>
     </defs>
     <use xlink:href="#DejaVuSans-16"/>
    </g>
   </g>
   <g id="text_5">
    <!-- 4 -->
    <g style="fill: #808080" transform="translate(139.234243 190.330371) scale(0.05 -0.05)">
     <defs>
      <path id="DejaVuSans-17" d="M 2419 4116 
L 825 1625 
L 2419 1625 
L 2419 4116 
z
M 2253 4666 
L 3047 4666 
L 3047 1625 
L 3713 1625 
L 3713 1100 
L 3047 1100 
L 3047 0 
L 2419 0 
L 2419 1100 
L 313 1100 
L 313 1709 
L 2253 4666 
z
" transform="scale(0.015625)"/>
     </defs>
     <use xlink:href="#DejaVuSans-17"/>
    </g>
   </g>
   <g id="text_6">
    <!-- 5 -->
    <g style="fill: #808080" transform="translate(139.234243 197.154668) scale(0.05 -0.05)">
     <defs>
      <path id="DejaVuSans-18" d="M 691 4666 
L 3169 4666 
L 3169 4134 
L 1269 4134 
L 1269 2991 
Q 1406 3038 1543 3061 
Q 1681 3084 1819 3084 
Q 2600 3084 3056 2656 
Q 3513 2228 3513 1497 
Q 3513 744 3044 326 
Q 2575 -91 1722 -91 
Q 1428 -91 1123 -41 
Q 819 9 494 109 
L 494 744 
Q 775 591 1075 516 
Q 1375 441 1709 441 
Q 2250 441 2565 725 
Q 2881 1009 2881 1497 
Q 2881 1984 2565 2268 
Q 2250 2553 1709 2553 
Q 1456 2553 1204 2497 
Q 953 2441 691 2322 
L 691 4666 
z
" transform="scale(0.015625)"/>
     </defs>
     <use xlink:href="#DejaVuSans-18"/>
    </g>
   </g>
   <g id="text_7">
    <!-- 6 -->
    <g style="fill: #808080" transform="translate(146.058539 163.033184) scale(0.05 -0.05)">
     <defs>
      <path id="DejaVuSans-19" d="M 2113 2584 
Q 1688 2584 1439 2293 
Q 1191 2003 1191 1497 
Q 1191 994 1439 701 
Q 1688 409 2113 409 
Q 2538 409 2786 701 
Q 3034 994 3034 1497 
Q 3034 2003 2786 2293 
Q 2538 2584 2113 2584 
z
M 3366 4563 
L 3366 3988 
Q 3128 4100 2886 4159 
Q 2644 4219 2406 4219 
Q 1781 4219 1451 3797 
Q 1122 3375 1075 2522 
Q 1259 2794 1537 2939 
Q 1816 3084 2150 3084 
Q 2853 3084 3261 2657 
Q 3669 2231 3669 1497 
Q 3669 778 3244 343 
Q 2819 -91 2113 -91 
Q 1303 -91 875 529 
Q 447 1150 447 2328 
Q 447 3434 972 4092 
Q 1497 4750 2381 4750 
Q 2619 4750 2861 4703 
Q 3103 4656 3366 4563 
z
" transform="scale(0.015625)"/>
     </defs>
     <use xlink:href="#DejaVuSans-19"/>
    </g>
   </g>
   <g id="text_8">
    <!-- 24 -->
    <g style="fill: #808080" transform="translate(144.467914 183.506074) scale(0.05 -0.05)">
     <use xlink:href="#DejaVuSans-15"/>
     <use xlink:href="#DejaVuSans-17" transform="translate(63.625 0)"/>
    </g>
   </g>
   <g id="text_9">
    <!-- 27 -->
    <g style="fill: #808080" transform="translate(205.886585 183.506074) scale(0.05 -0.05)">
     <defs>
      <path id="DejaVuSans-1a" d="M 525 4666 
L 3525 4666 
L 3525 4397 
L 1831 0 
L 1172 0 
L 2766 4134 
L 525 4134 
L 525 4666 
z
" transform="scale(0.015625)"/>
     </defs>
     <use xlink:href="#DejaVuSans-15"/>
     <use xlink:href="#DejaVuSans-1a" transform="translate(63.625 0)"/>
    </g>
   </g>
   <g id="text_10">
    <!-- 54 -->
    <g style="fill: #808080" transform="translate(315.075334 190.330371) scale(0.05 -0.05)">
     <use xlink:href="#DejaVuSans-18"/>
     <use xlink:href="#DejaVuSans-17" transform="translate(63.625 0)"/>
    </g>
   </g>
   <g id="text_11">
    <!-- 81 -->
    <g style="fill: #808080" transform="translate(424.264082 197.154668) scale(0.05 -0.05)">
     <defs>
      <path id="DejaVuSans-1b" d="M 2034 2216 
Q 1584 2216 1326 1975 
Q 1069 1734 1069 1313 
Q 1069 891 1326 650 
Q 1584 409 2034 409 
Q 2484 409 2743 651 
Q 3003 894 3003 1313 
Q 3003 1734 2745 1975 
Q 2488 2216 2034 2216 
z
M 1403 2484 
Q 997 2584 770 2862 
Q 544 3141 544 3541 
Q 544 4100 942 4425 
Q 1341 4750 2034 4750 
Q 2731 4750 3128 4425 
Q 3525 4100 3525 3541 
Q 3525 3141 3298 2862 
Q 3072 2584 2669 2484 
Q 3125 2378 3379 2068 
Q 3634 1759 3634 1313 
Q 3634 634 3220 271 
Q 2806 -91 2034 -91 
Q 1263 -91 848 271 
Q 434 634 434 1313 
Q 434 1759 690 2068 
Q 947 2378 1403 2484 
z
M 1172 3481 
Q 1172 3119 1398 2916 
Q 1625 2713 2034 2713 
Q 2441 2713 2670 2916 
Q 2900 3119 2900 3481 
Q 2900 3844 2670 4047 
Q 2441 4250 2034 4250 
Q 1625 4250 1398 4047 
Q 1172 3844 1172 3481 
z
" transform="scale(0.015625)"/>
     </defs>
     <use xlink:href="#DejaVuSans-1b"/>
     <use xlink:href="#DejaVuSans-14" transform="translate(63.625 0)"/>
    </g>
   </g>
   <g id="text_12">
    <!-- 154 -->
    <g style="fill: #808080" transform="translate(702.469625 197.154668) scale(0.05 -0.05)">
     <use xlink:href="#DejaVuSans-14"/>
     <use xlink:href="#DejaVuSans-18" transform="translate(63.625 0)"/>
     <use xlink:href="#DejaVuSans-17" transform="translate(127.25 0)"/>
    </g>
   </g>
   <g id="text_13">
    <!-- 159 -->
    <g style="fill: #808080" transform="translate(306.660412 163.033184) scale(0.05 -0.05)">
     <defs>
      <path id="DejaVuSans-1c" d="M 703 97 
L 703 672 
Q 941 559 1184 500 
Q 1428 441 1663 441 
Q 2288 441 2617 861 
Q 2947 1281 2994 2138 
Q 2813 1869 2534 1725 
Q 2256 1581 1919 1581 
Q 1219 1581 811 2004 
Q 403 2428 403 3163 
Q 403 3881 828 4315 
Q 1253 4750 1959 4750 
Q 2769 4750 3195 4129 
Q 3622 3509 3622 2328 
Q 3622 1225 3098 567 
Q 2575 -91 1691 -91 
Q 1453 -91 1209 -44 
Q 966 3 703 97 
z
M 1959 2075 
Q 2384 2075 2632 2365 
Q 2881 2656 2881 3163 
Q 2881 3666 2632 3958 
Q 2384 4250 1959 4250 
Q 1534 4250 1286 3958 
Q 1038 3666 1038 3163 
Q 1038 2656 1286 2365 
Q 1534 2075 1959 2075 
z
" transform="scale(0.015625)"/>
     </defs>
     <use xlink:href="#DejaVuSans-14"/>
     <use xlink:href="#DejaVuSans-18" transform="translate(63.625 0)"/>
     <use xlink:href="#DejaVuSans-1c" transform="translate(127.25 0)"/>
    </g>
   </g>
   <g id="text_14">
    <!-- 171 -->
    <g style="fill: #808080" transform="translate(743.415406 163.033184) scale(0.05 -0.05)">
     <use xlink:href="#DejaVuSans-14"/>
     <use xlink:href="#DejaVuSans-1a" transform="translate(63.625 0)"/>
     <use xlink:href="#DejaVuSans-14" transform="translate(127.25 0)"/>
    </g>
   </g>
   <g id="text_15">
    <!-- 172 -->
    <g style="fill: #808080" transform="translate(743.415406 169.857481) scale(0.05 -0.05)">
     <use xlink:href="#DejaVuSans-14"/>
     <use xlink:href="#DejaVuSans-1a" transform="translate(63.625 0)"/>
     <use xlink:href="#DejaVuSans-15" transform="translate(127.25 0)"/>
    </g>
   </g>
   <g id="text_16">
    <!-- 173 -->
    <g style="fill: #808080" transform="translate(743.415406 176.681777) scale(0.05 -0.05)">
     <use xlink:href="#DejaVuSans-14"/>
     <use xlink:href="#DejaVuSans-1a" transform="translate(63.625 0)"/>
     <use xlink:href="#DejaVuSans-16" transform="translate(127.25 0)"/>
    </g>
   </g>
   <g id="text_17">
    <!-- 174 -->
    <g style="fill: #808080" transform="translate(743.415406 183.506074) scale(0.05 -0.05)">
     <use xlink:href="#DejaVuSans-14"/>
     <use xlink:href="#DejaVuSans-1a" transform="translate(63.625 0)"/>
     <use xlink:href="#DejaVuSans-17" transform="translate(127.25 0)"/>
    </g>
   </g>
   <g id="text_18">
    <!-- 175 -->
    <g style="fill: #808080" transform="translate(743.415406 190.330371) scale(0.05 -0.05)">
     <use xlink:href="#DejaVuSans-14"/>
     <use xlink:href="#DejaVuSans-1a" transform="translate(63.625 0)"/>
     <use xlink:href="#DejaVuSans-18" transform="translate(127.25 0)"/>
    </g>
   </g>
   <g id="text_19">
    <!-- 176 -->
    <g style="fill: #808080" transform="translate(743.415406 197.154668) scale(0.05 -0.05)">
     <use xlink:href="#DejaVuSans-14"/>
     <use xlink:href="#DejaVuSans-1a" transform="translate(63.625 0)"/>
     <use xlink:href="#DejaVuSans-19" transform="translate(127.25 0)"/>
    </g>
   </g>
  </g>
 </g>
 <defs>
  <clipPath id="p24ae71bfaa">
   <rect x="108" y="43.2" width="669.6" height="277.2"/>
  </clipPath>
 </defs>
</svg>
